<svg width="800" height="800" xmlns="http://www.w3.org/2000/svg">
<circle cx="400" cy="400" r="100" fill="none" stroke="black" />
<line x1="0" y1="400" x2="800" y2="400" stroke="black" />
<line x1="400" y1="0" x2="400" y2="800" stroke="black" />
<line x1="500" y1="400" x2="430" y2="304" stroke="black" />
<line x1="430" y1="304" x2="319" y2="341" stroke="black" />
<line x1="319" y1="341" x2="319" y2="458" stroke="black" />
<line x1="319" y1="458" x2="430" y2="495" stroke="black" />
<line x1="430" y1="495" x2="500" y2="400" stroke="black" />
<line x1="500" y1="400" x2="300" y2="400" stroke="green" />
<line x1="0" y1="304" x2="430" y2="304" stroke="green" />
<line x1="0" y1="495" x2="430" y2="495" stroke="green" />
<line x1="430" y1="495" x2="369" y2="304" stroke="red" />
<line x1="500" y1="400" x2="400" y2="92" stroke="red" />
<line x1="319" y1="458" x2="219" y2="150" stroke="red" />
<line x1="480" y1="341" x2="319" y2="458" stroke="blue" />
<line x1="319" y1="341" x2="500" y2="209" stroke="blue" />
<line x1="319" y1="500" x2="319" y2="300" stroke="gray" stroke-dasharray="5,5" />
<text x="20" y="10"><tspan x="0" dy="1.2em">theta = 2*math.pi/5</tspan><tspan x="0" dy="1.2em">a1 = math.sin(theta/2)/math.cos(theta/2)</tspan><tspan x="0" dy="1.2em">b3 = r*(math.sin(4*theta)*math.cos(theta/2)-math.cos(4*theta)*math.sin(theta/2))/math.cos(theta/2)</tspan><tspan x="0" dy="1.2em">x2 = -b3/a1</tspan><tspan x="0" dy="1.2em"> = -r*(math.sin(4*theta)*math.cos(theta/2)-math.cos(4*theta)*math.sin(theta/2))/math.sin(theta/2)</tspan></text>
<line x1="430" y1="495" x2="561" y2="400" stroke="blue" />
<line x1="319" y1="458" x2="500" y2="590" stroke="purple" />
<line x1="430" y1="304" x2="561" y2="400" stroke="purple" />
<text x="571" y="390">(x2, 0) = (161.80, 0)</text>
<line x1="430" y1="304" x2="369" y2="495" stroke="pink" />
<line x1="500" y1="400" x2="400" y2="707" stroke="pink" />
<line x1="319" y1="341" x2="219" y2="648" stroke="pink" />
<text x="490" y="341">Math.PI/5</text>
</svg>
