<svg width="800" height="800" xmlns="http://www.w3.org/2000/svg">
<line x1="0" y1="400" x2="800" y2="400" stroke="black" />
<line x1="400" y1="0" x2="400" y2="800" stroke="black" />
<line x1="400" y1="400" x2="500" y2="400" stroke="black" />
<line x1="500" y1="400" x2="530" y2="304" stroke="black" />
<line x1="530" y1="304" x2="450" y2="246" stroke="black" />
<line x1="450" y1="246" x2="369" y2="304" stroke="black" />
<line x1="369" y1="304" x2="400" y2="400" stroke="black" />
<line x1="238" y1="400" x2="369" y2="304" stroke="gray" stroke-dasharray="4,4" />
<line x1="661" y1="400" x2="530" y2="304" stroke="gray" stroke-dasharray="4,4" />
<text x="450" y="246">shw = l/(2*math.cos(math.pi*2/5))</text>
<line x1="500" y1="400" x2="450" y2="246" stroke="red" stroke-dasharray="4,4" />
<line x1="530" y1="304" x2="369" y2="304" stroke="red" stroke-dasharray="4,4" />
<line x1="450" y1="246" x2="400" y2="400" stroke="red" stroke-dasharray="4,4" />
<line x1="369" y1="304" x2="500" y2="400" stroke="red" stroke-dasharray="4,4" />
<line x1="400" y1="400" x2="530" y2="304" stroke="red" stroke-dasharray="4,4" />
</svg>
